<svg width="31" height="31" viewBox="0 0 31 31" fill="none" xmlns="http://www.w3.org/2000/svg">
<g clip-path="url(#clip0)">
<path d="M25.359 0H5C2.23858 0 0 2.23858 0 5V25.359C0 28.1204 2.23858 30.359 5 30.359H25.359C28.1204 30.359 30.359 28.1204 30.359 25.359V5C30.359 2.23858 28.1204 0 25.359 0Z" fill="url(#paint0_linear)"/>
<mask id="path-2-inside-1" fill="white">
<path d="M24.9949 14.6838C24.9925 14.6478 24.9857 14.6133 24.9739 14.5793C24.9695 14.5666 24.9664 14.5544 24.9608 14.5421C24.9418 14.5009 24.9177 14.4621 24.8844 14.4293C24.884 14.4289 24.884 14.4289 24.884 14.4289L22.625 12.1695V9.95833C22.625 9.94963 22.6206 9.9421 22.6199 9.9334C22.6175 9.89856 22.6108 9.86492 22.5997 9.83167C22.5953 9.819 22.5921 9.80673 22.5862 9.79446C22.5668 9.7525 22.5427 9.71252 22.5086 9.67848L18.9461 6.11598C18.9121 6.08194 18.8721 6.0574 18.8297 6.038C18.8179 6.03285 18.806 6.02929 18.7941 6.02533C18.7601 6.01346 18.7252 6.00673 18.6896 6.00435C18.6817 6.00396 18.6746 6 18.6667 6H8.77083C8.55233 6 8.375 6.17733 8.375 6.39583V12.1695L6.11598 14.4285C6.11598 14.4285 6.11558 14.4289 6.11519 14.4293C6.08194 14.4625 6.05819 14.5013 6.03919 14.5421C6.03365 14.5544 6.03048 14.5666 6.02613 14.5793C6.01425 14.6133 6.00713 14.6478 6.00515 14.6838C6.00435 14.6925 6 14.6996 6 14.7083V22.2292C6 22.4477 6.17733 22.625 6.39583 22.625H8.375V24.6042C8.375 24.8227 8.55233 25 8.77083 25H22.2292C22.4477 25 22.625 24.8227 22.625 24.6042V22.625H24.6042C24.8227 22.625 25 22.4477 25 22.2292V14.7083C25 14.6996 24.9956 14.6925 24.9949 14.6838ZM23.6486 14.3125H22.625V13.2889L23.6486 14.3125ZM21.2736 9.5625H19.0625V7.35138L21.2736 9.5625ZM9.16667 6.79167H18.2708V9.95833C18.2708 10.1768 18.4482 10.3542 18.6667 10.3542H21.8333V12.3333V14.3125H9.16667V12.3333V6.79167ZM8.375 13.2889V14.3125H7.35138L8.375 13.2889ZM21.8333 24.2083H9.16667V22.625H21.8333V24.2083ZM24.2083 21.8333H6.79167V15.1042H8.77083H22.2292H24.2083V21.8333Z"/>
</mask>
<path d="M24.9949 14.6838C24.9925 14.6478 24.9857 14.6133 24.9739 14.5793C24.9695 14.5666 24.9664 14.5544 24.9608 14.5421C24.9418 14.5009 24.9177 14.4621 24.8844 14.4293C24.884 14.4289 24.884 14.4289 24.884 14.4289L22.625 12.1695V9.95833C22.625 9.94963 22.6206 9.9421 22.6199 9.9334C22.6175 9.89856 22.6108 9.86492 22.5997 9.83167C22.5953 9.819 22.5921 9.80673 22.5862 9.79446C22.5668 9.7525 22.5427 9.71252 22.5086 9.67848L18.9461 6.11598C18.9121 6.08194 18.8721 6.0574 18.8297 6.038C18.8179 6.03285 18.806 6.02929 18.7941 6.02533C18.7601 6.01346 18.7252 6.00673 18.6896 6.00435C18.6817 6.00396 18.6746 6 18.6667 6H8.77083C8.55233 6 8.375 6.17733 8.375 6.39583V12.1695L6.11598 14.4285C6.11598 14.4285 6.11558 14.4289 6.11519 14.4293C6.08194 14.4625 6.05819 14.5013 6.03919 14.5421C6.03365 14.5544 6.03048 14.5666 6.02613 14.5793C6.01425 14.6133 6.00713 14.6478 6.00515 14.6838C6.00435 14.6925 6 14.6996 6 14.7083V22.2292C6 22.4477 6.17733 22.625 6.39583 22.625H8.375V24.6042C8.375 24.8227 8.55233 25 8.77083 25H22.2292C22.4477 25 22.625 24.8227 22.625 24.6042V22.625H24.6042C24.8227 22.625 25 22.4477 25 22.2292V14.7083C25 14.6996 24.9956 14.6925 24.9949 14.6838ZM23.6486 14.3125H22.625V13.2889L23.6486 14.3125ZM21.2736 9.5625H19.0625V7.35138L21.2736 9.5625ZM9.16667 6.79167H18.2708V9.95833C18.2708 10.1768 18.4482 10.3542 18.6667 10.3542H21.8333V12.3333V14.3125H9.16667V12.3333V6.79167ZM8.375 13.2889V14.3125H7.35138L8.375 13.2889ZM21.8333 24.2083H9.16667V22.625H21.8333V24.2083ZM24.2083 21.8333H6.79167V15.1042H8.77083H22.2292H24.2083V21.8333Z" fill="white"/>
<path d="M24.9949 14.6838L-116.368 24.0044L-116.253 25.7589L-116.093 27.51L24.9949 14.6838ZM24.9739 14.5793L-109.002 60.6333L-108.897 60.9376L-108.791 61.2414L24.9739 14.5793ZM24.9608 14.5421L154.075 -43.7674L153.835 -44.2976L153.591 -44.8259L24.9608 14.5421ZM24.8844 14.4293L-75.2914 114.605L-74.9915 114.905L-74.6898 115.203L24.8844 14.4293ZM24.884 14.4289L-75.2918 114.605L125.069 -85.7382L24.884 14.4289ZM22.625 12.1695H-119.045V70.8438L-77.5596 112.337L22.625 12.1695ZM22.6199 9.9334L-118.722 19.5703L-118.613 21.1664L-118.468 22.7596L22.6199 9.9334ZM22.5997 9.83167L157 -34.9683L156.79 -35.5963L156.575 -36.2224L22.5997 9.83167ZM22.5862 9.79446L-106.009 69.2394L-105.484 70.3746L-104.939 71.5004L22.5862 9.79446ZM22.5086 9.67848L-77.6672 109.854L22.5086 9.67848ZM18.9461 6.11598L119.122 -94.0598L18.9461 6.11598ZM18.8297 6.038L77.8158 -122.768L76.4934 -123.374L75.1588 -123.952L18.8297 6.038ZM18.7941 6.02533L-27.868 139.79L-26.9391 140.114L-26.0059 140.425L18.7941 6.02533ZM18.6896 6.00435L28.1134 -135.352L26.9394 -135.43L25.7643 -135.489L18.6896 6.00435ZM8.375 12.1695L108.551 112.345L150.045 70.8511V12.1695H8.375ZM6.11598 14.4285L-94.0598 -85.7473L-94.08 -85.7272L-94.1001 -85.707L6.11598 14.4285ZM6.11519 14.4293L-94.0606 -85.7465L6.11519 14.4293ZM6.03919 14.5421L-122.372 -45.2998L-122.728 -44.5357L-123.075 -43.7674L6.03919 14.5421ZM6.02613 14.5793L139.791 61.2414L139.897 60.9376L140.002 60.6333L6.02613 14.5793ZM6.00515 14.6838L147.093 27.51L147.323 24.9864L147.462 22.4561L6.00515 14.6838ZM8.375 22.625H150.045V-119.045H8.375V22.625ZM22.625 22.625V-119.045H-119.045V22.625H22.625ZM23.6486 14.3125V155.982H365.67L123.824 -85.8633L23.6486 14.3125ZM22.625 14.3125H-119.045V155.982H22.625V14.3125ZM22.625 13.2889L122.801 -86.8869L-119.045 -328.733V13.2889H22.625ZM21.2736 9.5625V151.232H363.295L121.449 -90.6133L21.2736 9.5625ZM19.0625 9.5625H-122.607V151.232H19.0625V9.5625ZM19.0625 7.35138L119.238 -92.8244L-122.607 -334.67V7.35138H19.0625ZM9.16667 6.79167V-134.878H-132.503V6.79167H9.16667ZM18.2708 6.79167H159.941V-134.878H18.2708V6.79167ZM21.8333 10.3542H163.503V-131.316H21.8333V10.3542ZM21.8333 14.3125V155.982H163.503V14.3125H21.8333ZM9.16667 14.3125H-132.503V155.982H9.16667V14.3125ZM8.375 13.2889H150.045V-328.733L-91.8008 -86.8869L8.375 13.2889ZM8.375 14.3125V155.982H150.045V14.3125H8.375ZM7.35138 14.3125L-92.8245 -85.8633L-334.67 155.982H7.35138V14.3125ZM21.8333 24.2083V165.878H163.503V24.2083H21.8333ZM9.16667 24.2083H-132.503V165.878H9.16667V24.2083ZM9.16667 22.625V-119.045H-132.503V22.625H9.16667ZM21.8333 22.625H163.503V-119.045H21.8333V22.625ZM24.2083 21.8333V163.503H165.878V21.8333H24.2083ZM6.79167 21.8333H-134.878V163.503H6.79167V21.8333ZM6.79167 15.1042V-126.566H-134.878V15.1042H6.79167ZM24.2083 15.1042H165.878V-126.566H24.2083V15.1042ZM166.358 5.36315C165.565 -6.65621 163.194 -19.3117 158.739 -32.0829L-108.791 61.2414C-113.222 48.5384 -115.58 35.9518 -116.368 24.0044L166.358 5.36315ZM158.949 -31.4748C159.485 -29.9171 159.876 -28.6848 159.948 -28.4581C160.161 -27.7922 159.829 -28.8397 159.583 -29.5873C158.952 -31.5113 157.125 -37.0138 154.075 -43.7674L-104.153 72.8516C-107.198 66.1102 -109.021 60.62 -109.648 58.7084C-109.891 57.9669 -110.221 56.9257 -110.007 57.5978C-109.933 57.8307 -109.539 59.0694 -109.002 60.6333L158.949 -31.4748ZM153.591 -44.8259C148.719 -55.3834 139.914 -71.0729 124.459 -86.3446L-74.6898 115.203C-90.0789 99.9972 -98.8351 84.3852 -103.67 73.9101L153.591 -44.8259ZM125.06 -85.7465C125.058 -85.7487 125.062 -85.7447 125.06 -85.7468C125.058 -85.7489 125.062 -85.7448 125.06 -85.7468C125.06 -85.7469 125.06 -85.7468 125.06 -85.7469C125.06 -85.7469 125.06 -85.7469 125.06 -85.7469C125.06 -85.7469 125.06 -85.7469 125.06 -85.7469C125.059 -85.7478 125.061 -85.7459 125.06 -85.7469C125.06 -85.7469 125.06 -85.7469 125.06 -85.7469C125.06 -85.7469 125.06 -85.7469 125.06 -85.7469C125.06 -85.7469 125.06 -85.7469 125.06 -85.7469C125.06 -85.7469 125.06 -85.7469 125.06 -85.7469C125.059 -85.7473 125.06 -85.7464 125.06 -85.7469C125.06 -85.7469 125.06 -85.7469 125.06 -85.7469C125.06 -85.7469 125.06 -85.7469 125.06 -85.7469C125.06 -85.7469 125.06 -85.7469 125.06 -85.7469C125.06 -85.7469 125.06 -85.7469 125.06 -85.7469C125.06 -85.7469 125.06 -85.7469 125.06 -85.7469C125.06 -85.7469 125.06 -85.7469 125.06 -85.7469C125.058 -85.7483 125.061 -85.7454 125.06 -85.7469C125.06 -85.7469 125.06 -85.7469 125.06 -85.7469C125.06 -85.7469 125.06 -85.7469 125.06 -85.7469C125.06 -85.7469 125.06 -85.7469 125.06 -85.7469C125.06 -85.7469 125.06 -85.7469 125.06 -85.7469C125.06 -85.7469 125.06 -85.7469 125.06 -85.7469C125.06 -85.7469 125.06 -85.7469 125.06 -85.7469C125.06 -85.7469 125.06 -85.7469 125.06 -85.7469C125.06 -85.7469 125.06 -85.7469 125.06 -85.7469C125.06 -85.747 125.06 -85.7468 125.06 -85.7469C125.06 -85.747 125.06 -85.7468 125.06 -85.7469C125.06 -85.7469 125.06 -85.7469 125.06 -85.7469C125.06 -85.7469 125.06 -85.7469 125.06 -85.7469C125.06 -85.7469 125.06 -85.7469 125.06 -85.7469C125.06 -85.7469 125.06 -85.7469 125.06 -85.7469C125.06 -85.7469 125.06 -85.7469 125.06 -85.7469C125.06 -85.7469 125.06 -85.7469 125.06 -85.7469C125.059 -85.7473 125.06 -85.7465 125.06 -85.7469C125.06 -85.747 125.06 -85.7468 125.06 -85.7469C125.06 -85.7469 125.06 -85.7469 125.06 -85.7469C125.06 -85.7469 125.06 -85.7469 125.06 -85.7469C125.06 -85.7469 125.06 -85.7469 125.06 -85.7469C125.06 -85.7469 125.06 -85.7469 125.06 -85.7469C125.06 -85.7469 125.06 -85.7469 125.06 -85.7469C125.06 -85.7469 125.06 -85.7469 125.06 -85.7469C125.06 -85.7469 125.06 -85.7469 125.06 -85.7469C125.06 -85.7469 125.06 -85.7469 125.06 -85.7469C125.06 -85.7469 125.06 -85.7469 125.06 -85.7469C125.06 -85.7469 125.06 -85.7469 125.06 -85.7469C125.06 -85.7469 125.06 -85.7469 125.06 -85.7469C125.06 -85.7469 125.06 -85.7469 125.06 -85.7469C125.06 -85.747 125.06 -85.7468 125.06 -85.7469C125.06 -85.7469 125.06 -85.7469 125.06 -85.7469C125.06 -85.7469 125.06 -85.7469 125.06 -85.7469C125.06 -85.7469 125.06 -85.7469 125.06 -85.7469C125.06 -85.7469 125.06 -85.7469 125.06 -85.7469C125.06 -85.7469 125.06 -85.7469 125.06 -85.7469C125.06 -85.7469 125.06 -85.7469 125.06 -85.7469C125.06 -85.7469 125.06 -85.7469 125.06 -85.7469C125.06 -85.7469 125.06 -85.7469 125.06 -85.7469C125.06 -85.7469 125.06 -85.7469 125.06 -85.7469C125.06 -85.7469 125.06 -85.7469 125.06 -85.7469C125.06 -85.7469 125.06 -85.7469 125.06 -85.7469C125.06 -85.7469 125.06 -85.7469 125.06 -85.7469C125.06 -85.7469 125.06 -85.7469 125.06 -85.7469C125.06 -85.7469 125.06 -85.7469 125.06 -85.7469C125.06 -85.7469 125.06 -85.7469 125.06 -85.7469C125.06 -85.7469 125.06 -85.7469 125.06 -85.7469C125.06 -85.7469 125.06 -85.7469 125.06 -85.7469C125.06 -85.7469 125.06 -85.7469 125.06 -85.7469C125.06 -85.7469 125.06 -85.7469 125.06 -85.7469C125.06 -85.7469 125.06 -85.7469 125.06 -85.747C125.06 -85.7469 125.06 -85.7469 125.06 -85.7469C125.06 -85.7472 125.06 -85.7463 125.061 -85.7463C125.06 -85.7469 125.059 -85.7474 125.059 -85.7479C125.06 -85.7465 125.06 -85.7472 125.059 -85.748C125.055 -85.7519 125.063 -85.7441 125.065 -85.7417C125.047 -85.76 125.047 -85.76 125.06 -85.7469C125.113 114.551 -75.1846 114.712 24.884 14.4289C124.953 -85.854 -75.3454 -85.6934 -75.2918 114.605C-75.2788 114.618 -75.2788 114.618 -75.2918 114.605C-75.2947 114.602 -75.2868 114.61 -75.2929 114.604C-75.2916 114.605 -75.292 114.604 -75.2918 114.605C-75.2918 114.605 -75.2917 114.605 -75.2917 114.605C-75.2918 114.605 -75.2919 114.605 -75.2918 114.605C-75.2918 114.605 -75.2918 114.605 -75.2919 114.605C-75.2918 114.605 -75.2918 114.605 -75.2918 114.605C-75.2918 114.605 -75.2918 114.605 -75.2918 114.605C-75.2918 114.605 -75.2918 114.605 -75.2918 114.605C-75.2918 114.605 -75.2918 114.605 -75.2918 114.605C-75.2918 114.605 -75.2918 114.605 -75.2918 114.605C-75.2918 114.605 -75.2918 114.605 -75.2918 114.605C-75.2918 114.605 -75.2918 114.605 -75.2918 114.605C-75.2918 114.605 -75.2918 114.605 -75.2918 114.605C-75.2918 114.605 -75.2918 114.605 -75.2918 114.605C-75.2918 114.605 -75.2918 114.605 -75.2918 114.605C-75.2918 114.605 -75.2918 114.605 -75.2918 114.605C-75.2918 114.605 -75.2918 114.605 -75.2918 114.605C-75.2918 114.605 -75.2918 114.605 -75.2918 114.605C-75.2918 114.605 -75.2918 114.605 -75.2918 114.605C-75.2918 114.605 -75.2918 114.605 -75.2918 114.605C-75.2918 114.605 -75.2918 114.605 -75.2918 114.605C-75.2918 114.605 -75.2918 114.605 -75.2918 114.605C-75.2918 114.605 -75.2918 114.605 -75.2918 114.605C-75.2918 114.605 -75.2918 114.605 -75.2918 114.605C-75.2918 114.605 -75.2918 114.605 -75.2918 114.605C-75.2918 114.605 -75.2918 114.605 -75.2918 114.605C-75.2918 114.605 -75.2918 114.605 -75.2918 114.605C-75.2918 114.605 -75.2918 114.605 -75.2918 114.605C-75.2918 114.605 -75.2918 114.605 -75.2918 114.605C-75.2918 114.605 -75.2918 114.605 -75.2918 114.605C-75.2918 114.605 -75.2918 114.605 -75.2918 114.605C-75.2918 114.605 -75.2918 114.605 -75.2918 114.605C-75.2918 114.605 -75.2918 114.605 -75.2918 114.605C-75.2918 114.605 -75.2918 114.605 -75.2918 114.605C-75.2918 114.605 -75.2918 114.605 -75.2918 114.605C-75.2915 114.605 -75.2921 114.604 -75.2917 114.605C-75.2917 114.605 -75.2915 114.605 -75.2914 114.605L125.06 -85.7465ZM125.069 -85.7382L122.81 -87.9976L-77.5596 112.337L-75.3006 114.596L125.069 -85.7382ZM164.295 12.1695V9.95833H-119.045V12.1695H164.295ZM164.295 9.95833C164.295 -1.89298 162.804 -11.6427 161.446 -18.3125C160.772 -21.6257 160.093 -24.3468 159.599 -26.2193C159.12 -28.0347 158.708 -29.4423 158.588 -29.8508C158.541 -30.0137 158.462 -30.2795 158.516 -30.0963C158.535 -30.0332 158.629 -29.7138 158.747 -29.3058C158.977 -28.507 159.463 -26.7993 160.012 -24.6151C161.107 -20.2641 162.825 -12.6086 163.708 -2.8928L-118.468 22.7596C-117.585 32.4797 -115.866 40.1395 -114.77 44.4946C-114.22 46.6808 -113.734 48.3906 -113.503 49.1915C-113.385 49.6004 -113.29 49.9208 -113.272 49.985C-113.217 50.1692 -113.295 49.9044 -113.343 49.7425C-113.462 49.336 -113.873 47.9305 -114.352 46.1171C-114.846 44.2466 -115.523 41.5276 -116.198 38.2165C-117.555 31.5508 -119.045 21.8053 -119.045 9.95833H164.295ZM163.962 0.296452C163.126 -11.9611 160.722 -23.8004 157 -34.9683L-111.8 54.6317C-115.501 43.5302 -117.891 31.7582 -118.722 19.5703L163.962 0.296452ZM156.575 -36.2224C157.096 -34.7066 157.488 -33.475 157.495 -33.4529C157.629 -33.0371 157.272 -34.159 156.885 -35.3101C156.01 -37.9156 153.824 -44.2405 150.112 -51.9115L-104.939 71.5004C-108.645 63.8417 -110.827 57.5291 -111.698 54.9359C-112.083 53.791 -112.437 52.6753 -112.302 53.0974C-112.293 53.1257 -111.899 54.3636 -111.376 55.8857L156.575 -36.2224ZM151.181 -49.6504C146.895 -58.9227 138.38 -74.8015 122.684 -90.4973L-77.6672 109.854C-93.295 94.2265 -101.761 78.4277 -106.009 69.2394L151.181 -49.6504ZM122.684 -90.4973L119.122 -94.0598L-81.2297 106.292L-77.6672 109.854L122.684 -90.4973ZM119.122 -94.0598C103.775 -109.407 88.1061 -118.056 77.8158 -122.768L-40.1563 134.844C-50.3619 130.171 -65.9509 121.571 -81.2297 106.292L119.122 -94.0598ZM75.1588 -123.952C70.3864 -126.02 66.5059 -127.384 64.616 -128.03C63.6844 -128.348 62.9439 -128.59 62.8448 -128.622C62.4979 -128.736 63.0991 -128.54 63.5941 -128.375L-26.0059 140.425C-25.5049 140.592 -24.8977 140.79 -25.2388 140.679C-25.3319 140.648 -26.0665 140.409 -26.9921 140.092C-28.8701 139.451 -32.7387 138.091 -37.4993 136.028L75.1588 -123.952ZM65.4563 -127.74C52.558 -132.239 39.9172 -134.565 28.1134 -135.352L9.26588 147.361C-2.46668 146.578 -15.0379 144.266 -27.868 139.79L65.4563 -127.74ZM25.7643 -135.489C36.3422 -134.96 44.7414 -133.34 49.6547 -132.24C52.1357 -131.684 54.0966 -131.173 55.1502 -130.893C55.691 -130.749 56.1154 -130.632 56.3055 -130.58C56.4027 -130.553 56.4795 -130.532 56.4893 -130.529C56.5254 -130.519 56.4624 -130.536 56.4111 -130.551C56.2591 -130.593 55.0266 -130.935 53.46 -131.332C51.8187 -131.748 49.2992 -132.355 46.1966 -132.97C40.0047 -134.196 30.4395 -135.67 18.6667 -135.67V147.67C6.89782 147.67 -2.66351 146.197 -8.85163 144.971C-11.9523 144.357 -14.47 143.75 -16.1094 143.334C-17.6741 142.938 -18.9047 142.596 -19.0548 142.555C-19.1057 142.541 -19.1682 142.523 -19.1316 142.533C-19.1213 142.536 -19.0441 142.558 -18.9464 142.585C-18.7553 142.637 -18.33 142.754 -17.7883 142.898C-16.7328 143.179 -14.77 143.69 -12.2871 144.247C-7.36993 145.348 1.03313 146.969 11.615 147.498L25.7643 -135.489ZM18.6667 -135.67H8.77083V147.67H18.6667V-135.67ZM8.77083 -135.67C-69.6898 -135.67 -133.295 -72.0648 -133.295 6.39583H150.045C150.045 84.4195 86.7945 147.67 8.77083 147.67V-135.67ZM-133.295 6.39583V12.1695H150.045V6.39583H-133.295ZM-91.8008 -88.0064L-94.0598 -85.7473L106.292 114.604L108.551 112.345L-91.8008 -88.0064ZM6.11598 14.4285C-94.1001 -85.707 -94.1001 -85.7071 -94.1001 -85.7071C-94.1001 -85.7071 -94.1001 -85.7071 -94.1 -85.7071C-94.1 -85.7071 -94.1 -85.7072 -94.1 -85.7072C-94.0999 -85.7073 -94.0999 -85.7073 -94.0998 -85.7074C-94.0997 -85.7075 -94.0996 -85.7076 -94.0995 -85.7077C-94.0993 -85.7079 -94.099 -85.7081 -94.0988 -85.7083C-94.0984 -85.7088 -94.0979 -85.7092 -94.0975 -85.7097C-94.0965 -85.7106 -94.0955 -85.7117 -94.0944 -85.7127C-94.0923 -85.7148 -94.0898 -85.7174 -94.0869 -85.7202C-94.0821 -85.7251 -94.0726 -85.7346 -94.0606 -85.7465L106.291 114.605C106.303 114.593 106.313 114.583 106.318 114.578C106.321 114.575 106.324 114.572 106.326 114.57C106.327 114.569 106.328 114.568 106.329 114.567C106.33 114.566 106.33 114.566 106.331 114.565C106.331 114.565 106.331 114.565 106.331 114.565C106.332 114.565 106.332 114.564 106.332 114.564C106.332 114.564 106.332 114.564 106.332 114.564C106.332 114.564 106.332 114.564 106.332 114.564C106.332 114.564 106.332 114.564 106.332 114.564C106.332 114.564 106.332 114.564 6.11598 14.4285ZM-94.0606 -85.7465C-109.374 -70.4335 -117.89 -54.9164 -122.372 -45.2998L134.45 74.384C130.006 83.919 121.538 99.3586 106.291 114.605L-94.0606 -85.7465ZM-123.075 -43.7674C-126.123 -37.0169 -127.95 -31.517 -128.582 -29.5929C-128.827 -28.8444 -129.159 -27.7982 -128.947 -28.4623C-128.875 -28.688 -128.484 -29.9189 -127.949 -31.4748L140.002 60.6333C140.539 59.0712 140.932 57.8339 141.006 57.602C141.219 56.9317 140.889 57.9717 140.646 58.7139C140.019 60.6257 138.196 66.1133 135.153 72.8516L-123.075 -43.7674ZM-127.739 -32.0829C-131.849 -20.3005 -134.676 -7.19495 -135.451 6.91145L147.462 22.4561C146.691 36.4905 143.877 49.5272 139.791 61.2414L-127.739 -32.0829ZM-135.083 1.85759C-134.185 -8.01879 -132.419 -15.8396 -131.237 -20.4568C-130.65 -22.747 -130.129 -24.539 -129.877 -25.3954C-129.748 -25.8312 -129.645 -26.1717 -129.623 -26.2466C-129.559 -26.456 -129.647 -26.1658 -129.693 -26.0123C-129.817 -25.5988 -130.255 -24.1378 -130.765 -22.253C-131.291 -20.3043 -132.009 -17.4861 -132.72 -14.0569C-134.163 -7.09459 -135.67 2.7878 -135.67 14.7083H147.67C147.67 26.6245 146.164 36.5027 144.721 43.461C144.01 46.8882 143.293 49.7044 142.767 51.6511C142.259 53.5339 141.821 54.9929 141.698 55.4044C141.652 55.557 141.564 55.8462 141.628 55.6358C141.651 55.5599 141.754 55.2184 141.883 54.7816C142.136 53.9232 142.658 52.1292 143.245 49.837C144.428 45.2157 146.195 37.3907 147.093 27.51L-135.083 1.85759ZM-135.67 14.7083V22.2292H147.67V14.7083H-135.67ZM-135.67 22.2292C-135.67 100.69 -72.0648 164.295 6.39583 164.295V-119.045C84.4195 -119.045 147.67 -55.7945 147.67 22.2292H-135.67ZM6.39583 164.295H8.375V-119.045H6.39583V164.295ZM-133.295 22.625V24.6042H150.045V22.625H-133.295ZM-133.295 24.6042C-133.295 103.065 -69.6898 166.67 8.77083 166.67V-116.67C86.7945 -116.67 150.045 -53.4195 150.045 24.6042H-133.295ZM8.77083 166.67H22.2292V-116.67H8.77083V166.67ZM22.2292 166.67C100.69 166.67 164.295 103.065 164.295 24.6042H-119.045C-119.045 -53.4195 -55.7945 -116.67 22.2292 -116.67V166.67ZM164.295 24.6042V22.625H-119.045V24.6042H164.295ZM22.625 164.295H24.6042V-119.045H22.625V164.295ZM24.6042 164.295C103.065 164.295 166.67 100.69 166.67 22.2292H-116.67C-116.67 -55.7945 -53.4195 -119.045 24.6042 -119.045V164.295ZM166.67 22.2292V14.7083H-116.67V22.2292H166.67ZM166.67 14.7083C166.67 2.78727 165.163 -7.09554 163.719 -14.0581C163.008 -17.4874 162.291 -20.3057 161.764 -22.2545C161.255 -24.1393 160.817 -25.6003 160.693 -26.0138C160.647 -26.1673 160.559 -26.4576 160.622 -26.2481C160.645 -26.1732 160.748 -25.8326 160.876 -25.3968C161.129 -24.5404 161.65 -22.7483 162.237 -20.458C163.419 -15.8405 165.185 -8.0193 166.083 1.85759L-116.093 27.51C-115.195 37.3912 -113.428 45.2166 -112.245 49.8381C-111.658 52.1305 -111.136 53.9246 -110.882 54.783C-110.754 55.2198 -110.65 55.5613 -110.628 55.6373C-110.564 55.8477 -110.651 55.5585 -110.697 55.4059C-110.821 54.9944 -111.258 53.5354 -111.767 51.6525C-112.293 49.7058 -113.01 46.8895 -113.721 43.4622C-115.163 36.5037 -116.67 26.625 -116.67 14.7083H166.67ZM23.6486 -127.357H22.625V155.982H23.6486V-127.357ZM164.295 14.3125V13.2889H-119.045V14.3125H164.295ZM-77.5509 113.465L-76.5272 114.488L123.824 -85.8633L122.801 -86.8869L-77.5509 113.465ZM21.2736 -132.107H19.0625V151.232H21.2736V-132.107ZM160.732 9.5625V7.35138H-122.607V9.5625H160.732ZM-81.1133 107.527L-78.9022 109.738L121.449 -90.6133L119.238 -92.8244L-81.1133 107.527ZM9.16667 148.462H18.2708V-134.878H9.16667V148.462ZM-123.399 6.79167V9.95833H159.941V6.79167H-123.399ZM-123.399 9.95833C-123.399 88.419 -59.794 152.024 18.6667 152.024V-131.316C96.6903 -131.316 159.941 -68.0653 159.941 9.95833H-123.399ZM18.6667 152.024H21.8333V-131.316H18.6667V152.024ZM-119.837 10.3542V12.3333H163.503V10.3542H-119.837ZM-119.837 12.3333V14.3125H163.503V12.3333H-119.837ZM21.8333 -127.357H9.16667V155.982H21.8333V-127.357ZM150.837 14.3125V12.3333H-132.503V14.3125H150.837ZM150.837 12.3333V6.79167H-132.503V12.3333H150.837ZM-133.295 13.2889V14.3125H150.045V13.2889H-133.295ZM8.375 -127.357H7.35138V155.982H8.375V-127.357ZM107.527 114.488L108.551 113.465L-91.8008 -86.8869L-92.8245 -85.8633L107.527 114.488ZM21.8333 -117.462H9.16667V165.878H21.8333V-117.462ZM150.837 24.2083V22.625H-132.503V24.2083H150.837ZM9.16667 164.295H21.8333V-119.045H9.16667V164.295ZM-119.837 22.625V24.2083H163.503V22.625H-119.837ZM24.2083 -119.837H6.79167V163.503H24.2083V-119.837ZM148.462 21.8333V15.1042H-134.878V21.8333H148.462ZM6.79167 156.774H8.77083V-126.566H6.79167V156.774ZM8.77083 156.774H22.2292V-126.566H8.77083V156.774ZM22.2292 156.774H24.2083V-126.566H22.2292V156.774ZM-117.462 15.1042V21.8333H165.878V15.1042H-117.462Z" fill="white" mask="url(#path-2-inside-1)"/>
<mask id="path-4-inside-2" fill="white">
<path d="M13.2257 16.5785C13.0978 16.4689 12.9533 16.3913 12.7914 16.3466C12.6299 16.3019 12.4728 16.2793 12.3204 16.2793H11.0015V21.0435H11.7955V19.1325H12.3608C12.5266 19.1325 12.6881 19.1032 12.8453 19.045C13.0024 18.9868 13.1413 18.8969 13.2625 18.7758C13.3836 18.6547 13.481 18.5035 13.5554 18.3214C13.6294 18.1397 13.6666 17.9279 13.6666 17.6857C13.6666 17.4165 13.625 17.1921 13.5419 17.0128C13.4588 16.8335 13.3535 16.6886 13.2257 16.5785ZM12.7178 18.2747C12.5967 18.4069 12.4419 18.473 12.2535 18.473H11.7959V16.9589H12.2535C12.4419 16.9589 12.5967 17.0171 12.7178 17.1339C12.8389 17.2507 12.8995 17.4367 12.8995 17.6924C12.8995 17.9481 12.8389 18.1421 12.7178 18.2747Z"/>
</mask>
<path d="M13.2257 16.5785C13.0978 16.4689 12.9533 16.3913 12.7914 16.3466C12.6299 16.3019 12.4728 16.2793 12.3204 16.2793H11.0015V21.0435H11.7955V19.1325H12.3608C12.5266 19.1325 12.6881 19.1032 12.8453 19.045C13.0024 18.9868 13.1413 18.8969 13.2625 18.7758C13.3836 18.6547 13.481 18.5035 13.5554 18.3214C13.6294 18.1397 13.6666 17.9279 13.6666 17.6857C13.6666 17.4165 13.625 17.1921 13.5419 17.0128C13.4588 16.8335 13.3535 16.6886 13.2257 16.5785ZM12.7178 18.2747C12.5967 18.4069 12.4419 18.473 12.2535 18.473H11.7959V16.9589H12.2535C12.4419 16.9589 12.5967 17.0171 12.7178 17.1339C12.8389 17.2507 12.8995 17.4367 12.8995 17.6924C12.8995 17.9481 12.8389 18.1421 12.7178 18.2747Z" fill="white"/>
<path d="M13.2257 16.5785L105.642 -90.7974L105.546 -90.8797L105.451 -90.9618L13.2257 16.5785ZM12.7914 16.3466L-25.0221 152.877L-24.9792 152.889L-24.9362 152.901L12.7914 16.3466ZM11.0015 16.2793V-125.391H-130.669V16.2793H11.0015ZM11.0015 21.0435H-130.669V162.714H11.0015V21.0435ZM11.7955 21.0435V162.714H153.466V21.0435H11.7955ZM11.7955 19.1325V-122.538H-129.874V19.1325H11.7955ZM13.5554 18.3214L144.696 71.9179L144.725 71.8455L144.755 71.7731L13.5554 18.3214ZM12.7178 18.2747L117.176 113.976L117.248 113.899L117.319 113.821L12.7178 18.2747ZM11.7959 18.473H-129.874V160.143H11.7959V18.473ZM11.7959 16.9589V-124.711H-129.874V16.9589H11.7959ZM105.451 -90.9618C89.7974 -104.386 71.1195 -114.516 50.5191 -120.207L-24.9362 152.901C-45.2129 147.299 -63.6018 137.324 -78.9994 124.119L105.451 -90.9618ZM50.605 -120.184C39.4436 -123.275 26.5477 -125.391 12.3204 -125.391V157.949C-1.60219 157.949 -14.1837 155.879 -25.0221 152.877L50.605 -120.184ZM12.3204 -125.391H11.0015V157.949H12.3204V-125.391ZM-130.669 16.2793V21.0435H152.671V16.2793H-130.669ZM11.0015 162.714H11.7955V-120.626H11.0015V162.714ZM153.466 21.0435V19.1325H-129.874V21.0435H153.466ZM11.7955 160.802H12.3608V-122.538H11.7955V160.802ZM12.3608 160.802C29.6072 160.802 46.4098 157.687 62.0384 151.9L-36.3479 -113.81C-21.0336 -119.48 -4.55399 -122.538 12.3608 -122.538V160.802ZM62.0384 151.9C81.9279 144.535 99.3219 133.068 113.438 118.952L-86.9134 -81.4C-73.0392 -95.2742 -55.9231 -106.562 -36.3479 -113.81L62.0384 151.9ZM113.438 118.952C128.744 103.646 138.572 86.9022 144.696 71.9179L-117.585 -35.2751C-111.61 -49.8952 -101.977 -66.3365 -86.9134 -81.4L113.438 118.952ZM144.755 71.7731C153.125 51.2291 155.337 32.1993 155.337 17.6857H-128.003C-128.003 3.6566 -125.866 -14.9496 -117.644 -35.1303L144.755 71.7731ZM155.337 17.6857C155.337 3.88625 153.353 -18.2367 142.073 -42.571L-114.989 76.5966C-126.103 52.6209 -128.003 30.9468 -128.003 17.6857H155.337ZM142.073 -42.571C135.008 -57.8111 123.586 -75.3535 105.642 -90.7974L-79.1908 123.954C-96.8789 108.731 -108.09 91.478 -114.989 76.5966L142.073 -42.571ZM-91.7408 -77.4269C-79.0846 -91.2412 -62.801 -103.461 -43.1349 -111.861C-23.6341 -120.19 -4.49164 -123.197 12.2535 -123.197V160.143C49.8885 160.143 88.7194 145.037 117.176 113.976L-91.7408 -77.4269ZM12.2535 -123.197H11.7959V160.143H12.2535V-123.197ZM153.466 18.473V16.9589H-129.874V18.473H153.466ZM11.7959 158.629H12.2535V-124.711H11.7959V158.629ZM12.2535 158.629C-19.3342 158.629 -55.9967 147.673 -85.608 119.126L111.044 -84.8583C81.1901 -113.639 44.2181 -124.711 12.2535 -124.711V158.629ZM-85.608 119.126C-124.743 81.3984 -128.771 36.1765 -128.771 17.6924H154.569C154.569 -1.30311 150.42 -46.897 111.044 -84.8583L-85.608 119.126ZM-128.771 17.6924C-128.771 -2.53487 -124.033 -42.0745 -91.8832 -77.2713L117.319 113.821C149.711 78.3586 154.569 38.4311 154.569 17.6924H-128.771Z" fill="white" mask="url(#path-4-inside-2)"/>
<mask id="path-6-inside-3" fill="white">
<path d="M18.1611 21.0435H18.9754V18.9979H20.1933V18.3048H18.969V17.006H20.2943V16.2793H18.1611V21.0435Z"/>
</mask>
<path d="M18.1611 21.0435H18.9754V18.9979H20.1933V18.3048H18.969V17.006H20.2943V16.2793H18.1611V21.0435Z" fill="white"/>
<path d="M18.1611 21.0435H-123.509V162.714H18.1611V21.0435ZM18.9754 21.0435V162.714H160.645V21.0435H18.9754ZM18.9754 18.9979V-122.672H-122.695V18.9979H18.9754ZM20.1933 18.9979V160.668H161.863V18.9979H20.1933ZM20.1933 18.3048H161.863V-123.365H20.1933V18.3048ZM18.969 18.3048H-122.701V159.975H18.969V18.3048ZM18.969 17.006V-124.664H-122.701V17.006H18.969ZM20.2943 17.006V158.676H161.964V17.006H20.2943ZM20.2943 16.2793H161.964V-125.391H20.2943V16.2793ZM18.1611 16.2793V-125.391H-123.509V16.2793H18.1611ZM18.1611 162.714H18.9754V-120.626H18.1611V162.714ZM160.645 21.0435V18.9979H-122.695V21.0435H160.645ZM18.9754 160.668H20.1933V-122.672H18.9754V160.668ZM161.863 18.9979V18.3048H-121.477V18.9979H161.863ZM20.1933 -123.365H18.969V159.975H20.1933V-123.365ZM160.639 18.3048V17.006H-122.701V18.3048H160.639ZM18.969 158.676H20.2943V-124.664H18.969V158.676ZM161.964 17.006V16.2793H-121.376V17.006H161.964ZM20.2943 -125.391H18.1611V157.949H20.2943V-125.391ZM-123.509 16.2793V21.0435H159.831V16.2793H-123.509Z" fill="white" mask="url(#path-6-inside-3)"/>
<mask id="path-8-inside-4" fill="white">
<path d="M15.5303 16.2793H14.3325V21.0435H15.5236C16.1383 21.0435 16.6038 20.8361 16.9201 20.4213C17.2363 20.0061 17.3943 19.4218 17.3943 18.6682C17.3943 17.9145 17.2363 17.3279 16.9201 16.9083C16.6038 16.4891 16.1407 16.2793 15.5303 16.2793ZM16.5096 19.3981C16.4581 19.6071 16.3849 19.7808 16.2911 19.9198C16.1969 20.0587 16.0849 20.1632 15.9546 20.2325C15.8244 20.3022 15.6831 20.337 15.5307 20.337H15.1471V16.9859H15.5307C15.6831 16.9859 15.8244 17.0207 15.9546 17.0904C16.0849 17.1596 16.1969 17.2641 16.2911 17.4031C16.3853 17.542 16.4581 17.717 16.5096 17.9279C16.5611 18.1389 16.5872 18.3855 16.5872 18.6682C16.5872 18.9464 16.5611 19.1895 16.5096 19.3981Z"/>
</mask>
<path d="M15.5303 16.2793H14.3325V21.0435H15.5236C16.1383 21.0435 16.6038 20.8361 16.9201 20.4213C17.2363 20.0061 17.3943 19.4218 17.3943 18.6682C17.3943 17.9145 17.2363 17.3279 16.9201 16.9083C16.6038 16.4891 16.1407 16.2793 15.5303 16.2793ZM16.5096 19.3981C16.4581 19.6071 16.3849 19.7808 16.2911 19.9198C16.1969 20.0587 16.0849 20.1632 15.9546 20.2325C15.8244 20.3022 15.6831 20.337 15.5307 20.337H15.1471V16.9859H15.5307C15.6831 16.9859 15.8244 17.0207 15.9546 17.0904C16.0849 17.1596 16.1969 17.2641 16.2911 17.4031C16.3853 17.542 16.4581 17.717 16.5096 17.9279C16.5611 18.1389 16.5872 18.3855 16.5872 18.6682C16.5872 18.9464 16.5611 19.1895 16.5096 19.3981Z" fill="white"/>
<path d="M14.3325 16.2793V-125.391H-127.337V16.2793H14.3325ZM14.3325 21.0435H-127.337V162.714H14.3325V21.0435ZM16.9201 20.4213L129.582 106.315L129.602 106.289L129.621 106.263L16.9201 20.4213ZM16.9201 16.9083L130.051 -68.3666L130.032 -68.3923L130.012 -68.4179L16.9201 16.9083ZM16.5096 19.3981L-121.037 -14.5318L-121.045 -14.5016L-121.052 -14.4713L16.5096 19.3981ZM16.2911 19.9198L133.547 99.4267L133.625 99.3122L133.703 99.1974L16.2911 19.9198ZM15.9546 20.2325L-50.5755 -104.844L-50.7235 -104.765L-50.8713 -104.686L15.9546 20.2325ZM15.1471 20.337H-126.523V162.007H15.1471V20.337ZM15.1471 16.9859V-124.684H-126.523V16.9859H15.1471ZM15.9546 17.0904L-50.8713 142.009L-50.7235 142.088L-50.5755 142.167L15.9546 17.0904ZM16.5872 18.6682H158.257H16.5872ZM15.5303 -125.391H14.3325V157.949H15.5303V-125.391ZM-127.337 16.2793V21.0435H156.003V16.2793H-127.337ZM14.3325 162.714H15.5236V-120.626H14.3325V162.714ZM15.5236 162.714C51.4465 162.714 97.5021 148.392 129.582 106.315L-95.7417 -65.4724C-81.8566 -83.6846 -63.3119 -98.7209 -41.3264 -108.517C-20.0686 -117.989 -0.0175676 -120.626 15.5236 -120.626V162.714ZM129.621 106.263C155.461 72.3384 159.064 37.104 159.064 18.6682H-124.276C-124.276 1.73964 -120.988 -32.3262 -95.7811 -65.4206L129.621 106.263ZM159.064 18.6682C159.064 0.11387 155.414 -34.7182 130.051 -68.3666L-96.2107 102.183C-120.941 69.374 -124.276 35.7151 -124.276 18.6682H159.064ZM130.012 -68.4179C98.3818 -110.341 52.4626 -125.391 15.5303 -125.391V157.949C-0.355206 157.949 -20.6704 155.194 -42.0885 145.499C-64.1869 135.495 -82.5475 120.293 -96.172 102.234L130.012 -68.4179ZM-121.052 -14.4713C-118.107 -26.4324 -112.438 -42.5965 -101.12 -59.3579L133.703 99.1974C145.208 82.1582 151.024 65.6465 154.071 53.2674L-121.052 -14.4713ZM-100.965 -59.5872C-90.0794 -75.6415 -73.6957 -92.546 -50.5755 -104.844L82.4848 145.309C105.865 132.872 122.473 115.759 133.547 99.4267L-100.965 -59.5872ZM-50.8713 -104.686C-29.7745 -115.972 -6.86009 -121.333 15.5307 -121.333V162.007C38.2263 162.007 61.4234 156.576 82.7806 145.151L-50.8713 -104.686ZM15.5307 -121.333H15.1471V162.007H15.5307V-121.333ZM156.817 20.337V16.9859H-126.523V20.337H156.817ZM15.1471 158.656H15.5307V-124.684H15.1471V158.656ZM15.5307 158.656C-6.86009 158.656 -29.7745 153.295 -50.8713 142.009L82.7806 -107.828C61.4234 -119.254 38.2263 -124.684 15.5307 -124.684V158.656ZM-50.5755 142.167C-73.6954 129.869 -90.0791 112.965 -100.965 96.91L133.547 -62.1039C122.473 -78.4364 105.865 -95.5498 82.4848 -107.986L-50.5755 142.167ZM-100.965 96.91C-112.673 79.6431 -118.292 63.114 -121.126 51.4975L154.145 -15.6416C151.209 -27.68 145.444 -44.5591 133.547 -62.1039L-100.965 96.91ZM-121.126 51.4975C-124.385 38.1357 -125.083 26.6848 -125.083 18.6682H158.257C158.257 10.0862 157.507 -1.85789 154.145 -15.6416L-121.126 51.4975ZM-125.083 18.6682C-125.083 10.4851 -124.355 -1.08131 -121.037 -14.5318L154.056 53.328C157.477 39.4602 158.257 27.4077 158.257 18.6682L-125.083 18.6682Z" fill="white" mask="url(#path-8-inside-4)"/>
</g>
<defs>
<linearGradient id="paint0_linear" x1="32.5448" y1="-2.5198" x2="1.184" y2="28.9625" gradientUnits="userSpaceOnUse">
<stop stop-color="#F99494"/>
<stop offset="1" stop-color="#F46464"/>
</linearGradient>
<clipPath id="clip0">
<rect width="30.359" height="30.359" fill="white"/>
</clipPath>
</defs>
</svg>
