<?xml version="1.0" encoding="UTF-8" standalone="no"?>
<svg
   xmlns:dc="http://purl.org/dc/elements/1.1/"
   xmlns:cc="http://creativecommons.org/ns#"
   xmlns:rdf="http://www.w3.org/1999/02/22-rdf-syntax-ns#"
   xmlns:svg="http://www.w3.org/2000/svg"
   xmlns="http://www.w3.org/2000/svg"
   xmlns:sodipodi="http://sodipodi.sourceforge.net/DTD/sodipodi-0.dtd"
   xmlns:inkscape="http://www.inkscape.org/namespaces/inkscape"
   width="15"
   height="15"
   viewBox="0 0 15 15"
   id="svg2"
   version="1.1"
   inkscape:version="0.91 r13725"
   sodipodi:docname="pluscircle.svg">
  <metadata
     id="metadata10">
    <rdf:RDF>
      <cc:Work
         rdf:about="">
        <dc:format>image/svg+xml</dc:format>
        <dc:type
           rdf:resource="http://purl.org/dc/dcmitype/StillImage" />
        <dc:title></dc:title>
      </cc:Work>
    </rdf:RDF>
  </metadata>
  <defs
     id="defs8" />
  <sodipodi:namedview
     pagecolor="#ffffff"
     bordercolor="#666666"
     borderopacity="1"
     objecttolerance="10"
     gridtolerance="10"
     guidetolerance="10"
     inkscape:pageopacity="0"
     inkscape:pageshadow="2"
     inkscape:window-width="1559"
     inkscape:window-height="879"
     id="namedview6"
     showgrid="false"
     inkscape:showpageshadow="false"
     inkscape:zoom="35.7594"
     inkscape:cx="10.449671"
     inkscape:cy="8.7513554"
     inkscape:window-x="41"
     inkscape:window-y="21"
     inkscape:window-maximized="1"
     inkscape:current-layer="svg2" />
  <path
     d="m 11.35281,8.0814474 0,-1.129944 q 0,-0.229519 -0.167726,-0.397245 -0.167726,-0.167726 -0.397246,-0.167726 l -2.2598869,0 0,-2.259887 q 0,-0.22952 -0.167726,-0.397246 -0.167726,-0.167726 -0.397245,-0.167726 l -1.129944,0 q -0.229519,0 -0.397245,0.167726 -0.167726,0.167726 -0.167726,0.397246 l 0,2.259887 -2.259887,0 q -0.2295195,0 -0.3972456,0.167726 -0.1677261,0.167726 -0.1677261,0.397245 l 0,1.129944 q 0,0.229519 0.1677261,0.397245 0.1677261,0.167726 0.3972456,0.167726 l 2.259887,0 0,2.2598876 q 0,0.229519 0.167726,0.397245 0.167726,0.167726 0.397245,0.167726 l 1.129944,0 q 0.229519,0 0.397245,-0.167726 0.167726,-0.167726 0.167726,-0.397245 l 0,-2.2598876 2.2598869,0 q 0.22952,0 0.397246,-0.167726 0.167726,-0.167726 0.167726,-0.397245 z m 2.824858,-0.564972 q 0,1.844985 -0.909251,3.4030726 -0.909251,1.558086 -2.467337,2.467337 -1.5580869,0.909251 -3.4030719,0.909251 -1.844985,0 -3.4030724,-0.909251 Q 2.43685,12.477634 1.527599,10.919548 0.61834799,9.3614604 0.61834799,7.5164754 q 0,-1.844985 0.90925101,-3.403072 0.909251,-1.558086 2.4673367,-2.467337 1.5580874,-0.90925098 3.4030724,-0.90925098 1.844985,0 3.4030719,0.90925098 1.558086,0.909251 2.467337,2.467337 0.909251,1.558087 0.909251,3.403072 z"
     id="path4"
     style="fill:#00bf66;fill-opacity:1"
     inkscape:connector-curvature="0" />
</svg>
